<svg width="457" height="457" viewBox="0 0 457 457" fill="none" xmlns="http://www.w3.org/2000/svg">
<path d="M447.372 401.202C453.502 407.332 456.946 415.646 456.946 424.314C456.946 432.983 453.502 441.297 447.372 447.427C441.242 453.556 432.927 457 424.258 457C415.589 457 407.275 453.556 401.145 447.427L228.5 274.738L55.801 447.372C49.6709 453.502 41.3568 456.946 32.6875 456.946C24.0182 456.946 15.704 453.502 9.57395 447.372C3.44385 441.243 9.13455e-08 432.929 0 424.26C-9.13455e-08 415.591 3.44385 407.278 9.57395 401.148L182.273 228.514L9.62832 55.8249C3.49823 49.6952 0.054386 41.3815 0.0543861 32.7127C0.0543861 24.044 3.49823 15.7303 9.62832 9.60056C15.7584 3.47084 24.0726 0.0271863 32.7419 0.0271862C41.4111 0.0271861 49.7253 3.47084 55.8554 9.60056L228.5 182.289L401.199 9.57337C407.329 3.44364 415.643 -1.44421e-07 424.312 0C432.982 1.44421e-07 441.296 3.44364 447.426 9.57337C453.556 15.7031 457 24.0168 457 32.6855C457 41.3543 453.556 49.668 447.426 55.7977L274.727 228.514L447.372 401.202Z" fill="#072AC8"/>
</svg>
